<?xml version="1.0" encoding="UTF-8" standalone="no"?>
<!-- Created with Inkscape (http://www.inkscape.org/) -->

<svg
   width="15.160597mm"
   height="8.5877924mm"
   viewBox="0 0 15.160597 8.5877924"
   version="1.1"
   id="svg1832"
   inkscape:version="1.1.2 (0a00cf5339, 2022-02-04)"
   sodipodi:docname="drawing.svg"
   xmlns:inkscape="http://www.inkscape.org/namespaces/inkscape"
   xmlns:sodipodi="http://sodipodi.sourceforge.net/DTD/sodipodi-0.dtd"
   xmlns="http://www.w3.org/2000/svg"
   xmlns:svg="http://www.w3.org/2000/svg">
  <sodipodi:namedview
     id="namedview1834"
     pagecolor="#ffffff"
     bordercolor="#666666"
     borderopacity="1.0"
     inkscape:pageshadow="2"
     inkscape:pageopacity="0.0"
     inkscape:pagecheckerboard="0"
     inkscape:document-units="mm"
     showgrid="false"
     inkscape:snap-bbox="false"
     inkscape:snap-global="true"
     inkscape:zoom="5.8083614"
     inkscape:cx="58.966717"
     inkscape:cy="25.22226"
     inkscape:window-width="1920"
     inkscape:window-height="990"
     inkscape:window-x="0"
     inkscape:window-y="28"
     inkscape:window-maximized="1"
     inkscape:current-layer="layer1" />
  <defs
     id="defs1829" />
  <g
     inkscape:label="Layer 1"
     inkscape:groupmode="layer"
     id="layer1"
     transform="translate(-59.413992,-95.998688)">
    <g
       data-mml-node="math"
       id="g1651"
       transform="matrix(0.0047879,0,0,-0.0047879,62.051262,99.589613)"
       style="fill:#000000;stroke:#000000;stroke-width:0">
      <g
         data-mml-node="TeXAtom"
         id="g1637">
        <g
           data-mml-node="mi"
           id="g1635">
          <path
             id="use1633"
             d="m 64,339 q 0,92 32,163 32,71 86,112 54,41 113,61 59,20 125,21 49,0 61,-1 139,-15 228,-106 89,-91 89,-250 0,-84 -30,-155 Q 720,77 611,26 l -11,-5 q 35,-47 82,-47 h 14 q 73,0 73,26 0,7 5,12 5,5 13,6 18,0 18,-25 v -6 q -2,-51 -20,-93 -18,-42 -48,-65 -17,-12 -40,-20 -10,-2 -29,-2 -32,0 -55,11 -23,11 -38,38 -15,27 -23,50 -8,23 -20,67 -1,4 -2,11 -1,7 -2,10 -1,3 -2,3 l -14,-2 q -13,-2 -35,-3 -22,-1 -46,-2 -38,0 -49,1 Q 238,8 151,97 64,186 64,339 Z M 326,80 q 0,33 30,58 30,25 74,25 62,0 112,-63 l 11,-14 q 1,-1 8,5 7,6 17,17 59,71 59,222 0,100 -18,168 -18,68 -71,106 -48,37 -123,37 -17,0 -35,-4 -18,-4 -43,-14 -25,-10 -48,-33 -23,-23 -40,-55 -33,-66 -33,-197 0,-94 20,-158 20,-64 72,-101 l 7,-5 q 1,0 1,6 z M 506,58 q -26,54 -73,54 -21,0 -38,-8 -17,-8 -17,-27 0,-33 53,-33 49,0 75,14 z" />
        </g>
      </g>
      <g
         data-mml-node="mo"
         transform="translate(864)"
         id="g1641">
        <path
           id="use1639"
           d="M 118,-250 V 750 h 137 v -40 h -97 v -920 h 97 v -40 z" />
      </g>
      <g
         data-mml-node="mi"
         transform="translate(1142)"
         id="g1645">
        <path
           id="use1643"
           d="m 52,289 q 7,42 54,97 47,55 116,56 35,0 64,-18 29,-18 43,-45 42,63 101,63 37,0 64,-22 27,-22 28,-59 0,-29 -14,-47 -14,-18 -27,-22 -13,-4 -23,-4 -19,0 -31,11 -12,11 -12,29 0,46 50,63 -11,13 -40,13 -13,0 -19,-2 -38,-16 -56,-66 -60,-221 -60,-258 0,-28 16,-40 16,-12 35,-12 37,0 73,33 36,33 49,81 3,10 6,11 3,1 16,2 h 4 q 15,0 15,-8 0,-1 -2,-11 Q 486,77 440,33 394,-11 333,-11 263,-11 227,52 186,-10 133,-10 h -6 q -49,0 -70,26 -21,26 -22,55 0,32 19,52 19,20 45,20 43,0 43,-42 Q 142,81 130,66 118,51 107,46 96,41 94,41 l -3,-1 q 0,-1 6,-4 6,-3 16,-7 10,-4 19,-3 36,0 62,45 9,16 23,68 14,52 28,108 14,56 16,66 5,27 5,39 0,28 -15,40 -15,12 -34,12 -40,0 -75,-32 -35,-32 -49,-82 -2,-9 -5,-10 -3,-1 -16,-2 H 58 q -6,6 -6,11 z" />
      </g>
      <g
         data-mml-node="mo"
         transform="translate(1714)"
         id="g1649">
        <path
           id="use1647"
           d="m 22,710 v 40 H 159 V -250 H 22 v 40 h 97 v 920 z" />
      </g>
    </g>
    <path
       style="fill:#37c871;stroke-width:0.191651"
       id="path3943"
       d="m 59.413992,104.58648 c 1.105085,-0.428 2.296133,-0.72128 3.513056,-0.9174 0.392731,-0.0633 0.78955,-0.11177 1.184324,-0.16765 0.450559,-0.0503 0.900034,-0.10628 1.351679,-0.15096 2.022677,-0.20008 0.638706,-0.0165 2.712145,-0.2666 0.438629,-0.0529 0.876217,-0.11074 1.312621,-0.17294 0.688024,-0.0981 1.48808,-0.23291 2.178264,-0.3464 0.273806,-0.0463 0.547614,-0.0925 0.82142,-0.13883 0,0 2.087088,-1.18462 2.087088,-1.18462 v 0 c -0.310564,0.0681 -0.62113,0.1361 -0.931695,0.20415 -0.891305,0.18387 -1.421999,0.30266 -2.340617,0.45152 -0.441642,0.0716 -0.885259,0.13724 -1.331248,0.19209 -1.296521,0.15945 -2.608897,0.23586 -3.91555,0.33181 -0.362896,0.0337 -0.727178,0.06 -1.088691,0.10101 -0.942448,0.10693 -1.880594,0.28767 -2.784699,0.51196 -0.08342,0.0207 -0.164826,0.0456 -0.247241,0.0684 0,0 -2.520856,1.48444 -2.520856,1.48444 z" />
  </g>
</svg>
